<svg width="64" height="64" viewBox="0 0 64 64" fill="none" xmlns="http://www.w3.org/2000/svg">
  <path d="M32 8C19.8497 8 10 17.8497 10 30C10 42.1503 19.8497 52 32 52C32 52 46 52 46 38C46 24 32 8 32 8Z" stroke="#1E3A8A" stroke-width="2"/>
  <path d="M44 20C44 20 40 24 40 28C40 32 44 32 44 36C44 40 40 44 40 44" stroke="#1E3A8A" stroke-width="2"/>
  <path d="M23 30C28.5228 30 33 34.4772 33 40C33 45.5228 28.5228 50 23 50C17.4772 50 13 45.5228 13 40C13 34.4772 17.4772 30 23 30Z" stroke="#1E3A8A" stroke-width="2"/>
  <path d="M23 35V45" stroke="#1E3A8A" stroke-width="2"/>
  <path d="M18 40H28" stroke="#1E3A8A" stroke-width="2"/>
  <path d="M32 12C32 12 42 22 42 32" stroke="#1E3A8A" stroke-width="2"/>
</svg> 