<svg width="120" height="120" viewBox="0 0 120 120" fill="none" xmlns="http://www.w3.org/2000/svg">
  <path d="M60 10L70 30L60 50L50 30L60 10Z" fill="#1E3A8A"/>
  <path d="M30 40L50 50L50 70L30 60L30 40Z" fill="#1E3A8A"/>
  <path d="M90 40L90 60L70 70L70 50L90 40Z" fill="#1E3A8A"/>
  <path d="M60 70L70 90L60 110L50 90L60 70Z" fill="#1E3A8A"/>
  <path d="M60 50L70 50L70 70L60 70L60 50Z" fill="#1E3A8A"/>
  <path d="M50 50L50 70L40 70L40 50L50 50Z" fill="#1E3A8A"/>
  <path d="M80 50L80 70L70 70L70 50L80 50Z" fill="#1E3A8A"/>
</svg> 