<svg width="500" height="500" viewBox="0 0 500 500" xmlns="http://www.w3.org/2000/svg">
  <pattern id="snowflake-pattern" patternUnits="userSpaceOnUse" width="100" height="100">
    <path d="M50 10L50 30M40 15L60 25M40 25L60 15M30 30L40 40M30 40L40 30M40 40L50 30M60 40L50 30M60 30L70 40M70 30L60 40M50 40L50 60M40 45L60 55M40 55L60 45M30 70L40 60M30 60L40 70M40 60L50 70M60 60L50 70M60 70L70 60M70 70L60 60M50 70L50 90M40 75L60 85M40 85L60 75M10 50L30 50M15 40L25 60M25 40L15 60M30 30L40 40M40 30L30 40M40 40L30 50M40 60L30 50M30 60L40 70M40 60L30 70M40 50L60 50M45 40L55 60M55 40L45 60M70 30L60 40M60 30L70 40M60 40L70 50M60 60L70 50M70 60L60 70M60 70L70 60M70 50L90 50M75 40L85 60M85 40L75 60" 
        stroke="#E2E8F0" stroke-width="2" fill="none"/>
  </pattern>
  <rect width="100%" height="100%" fill="url(#snowflake-pattern)"/>
</svg> 